<?xml version="1.0" standalone="no"?>
<!DOCTYPE svg PUBLIC "-//W3C//DTD SVG 20010904//EN"
 "http://www.w3.org/TR/2001/REC-SVG-20010904/DTD/svg10.dtd">
<svg version="1.0" xmlns="http://www.w3.org/2000/svg"
 width="1024.000000pt" height="1024.000000pt" viewBox="0 0 1024.000000 1024.000000"
 preserveAspectRatio="xMidYMid meet">

<g transform="translate(0.000000,1024.000000) scale(0.100000,-0.100000)"
fill="#000000" stroke="none">
<path d="M4910 8790 c-488 -27 -962 -152 -1405 -370 -261 -128 -382 -203 -625
-384 -219 -164 -393 -331 -591 -566 -616 -731 -938 -1690 -881 -2628 23 -375
73 -636 189 -982 194 -582 492 -1061 928 -1493 353 -349 729 -600 1190 -792
472 -196 877 -276 1395 -276 210 1 494 27 645 61 57 12 189 43 285 66 218 52
489 159 732 289 222 119 279 154 431 264 312 228 573 483 828 810 55 70 190
275 248 376 167 288 319 681 401 1035 71 306 94 522 94 870 0 265 -9 370 -54
640 -64 379 -156 661 -341 1045 -153 319 -448 729 -703 979 -217 213 -441 389
-686 539 -446 274 -963 448 -1490 502 -180 18 -425 25 -590 15z m605 -74 c366
-48 641 -119 965 -250 113 -46 346 -163 445 -224 28 -17 70 -43 95 -58 170
-104 414 -298 594 -474 393 -384 681 -831 885 -1374 74 -198 115 -350 160
-596 52 -289 56 -334 56 -680 0 -284 -3 -345 -23 -484 -49 -345 -103 -548
-247 -930 -183 -488 -564 -1028 -982 -1393 -171 -149 -246 -206 -423 -321
-477 -312 -1050 -512 -1610 -562 -176 -15 -551 -12 -714 6 -337 38 -711 135
-986 256 -158 69 -352 165 -430 211 -364 219 -650 452 -900 732 -625 700 -962
1622 -937 2564 8 307 35 510 103 792 79 330 219 677 388 969 580 998 1570
1662 2697 1810 240 32 644 34 864 6z"/>
<path d="M5334 8576 c-72 -33 -106 -116 -108 -266 -1 -117 18 -162 85 -200 39
-22 56 -25 149 -25 l105 0 3 48 3 47 -74 0 c-145 0 -166 24 -148 171 16 139
46 160 181 125 30 -8 58 -12 62 -10 5 3 8 25 8 49 0 40 -3 44 -32 55 -53 19
-198 23 -234 6z"/>
<path d="M4541 8559 c-35 -4 -68 -12 -72 -16 -7 -7 24 -305 47 -447 l6 -39 92
7 c177 14 242 43 278 124 18 39 20 59 15 131 -4 48 -11 103 -17 123 -14 48
-55 97 -97 114 -36 15 -149 17 -252 3z m208 -111 c25 -26 34 -69 35 -160 1
-87 -18 -109 -98 -116 -64 -5 -58 -14 -76 133 -6 50 -13 107 -16 128 l-6 37
71 0 c59 0 73 -3 90 -22z"/>
<path d="M5783 8506 c-63 -29 -118 -152 -129 -291 -7 -84 11 -124 72 -168 54
-38 170 -62 227 -46 71 18 101 56 137 172 53 166 31 259 -71 310 -70 35 -185
46 -236 23z m162 -100 c55 -23 60 -44 36 -150 -12 -50 -31 -106 -42 -125 -19
-32 -22 -33 -70 -29 -37 4 -58 12 -77 31 l-26 26 13 78 c28 166 70 209 166
169z"/>
<path d="M4223 8493 c-28 -9 -43 -21 -43 -31 0 -9 14 -62 31 -117 17 -55 35
-113 40 -129 5 -16 7 -31 6 -32 -2 -2 -54 51 -117 116 -76 80 -121 120 -135
120 -24 0 -115 -29 -115 -37 0 -2 27 -93 60 -201 33 -109 60 -204 60 -213 0
-8 6 -24 14 -34 12 -17 17 -17 60 -5 26 7 49 16 51 20 2 4 -15 71 -39 149 -24
77 -42 141 -40 141 2 0 57 -55 122 -122 l119 -122 58 17 c32 9 60 19 63 21 10
10 -129 468 -143 472 -6 1 -29 -4 -52 -13z"/>
<path d="M6283 8328 c-15 -35 -62 -132 -105 -217 -43 -85 -78 -157 -78 -161 0
-6 85 -50 96 -50 5 0 113 222 128 264 12 34 15 12 5 -34 -6 -24 -13 -88 -17
-142 l-8 -98 32 -15 c18 -8 38 -15 46 -15 7 0 57 46 110 102 l98 103 -65 -137
c-36 -76 -65 -141 -65 -146 0 -13 87 -45 104 -39 7 3 28 43 46 89 19 45 60
141 92 213 32 71 58 135 58 141 0 16 -119 66 -134 57 -7 -5 -57 -56 -111 -115
-54 -59 -100 -106 -102 -104 -4 4 24 255 33 294 4 19 -3 26 -48 47 -78 36 -85
34 -115 -37z"/>
<path d="M3549 8233 c-45 -24 -54 -32 -52 -53 5 -57 53 -437 58 -457 7 -28 24
-29 75 -3 l40 20 -6 54 -7 54 73 37 73 37 34 -36 c20 -20 39 -36 44 -36 13 0
99 43 99 50 0 15 -344 360 -359 360 -10 0 -42 -12 -72 -27z m181 -235 c0 -8
-74 -48 -88 -48 -6 0 -15 36 -22 81 -6 45 -14 88 -16 97 -3 10 24 -14 60 -53
36 -38 66 -73 66 -77z"/>
<path d="M6871 8018 c-24 -35 -60 -85 -81 -113 -78 -107 -142 -198 -146 -209
-4 -12 75 -76 93 -76 4 1 24 25 43 55 19 30 41 55 48 55 7 0 39 -19 73 -41
110 -75 180 -63 254 46 34 49 37 59 33 103 -7 72 -23 89 -182 199 -34 23 -68
43 -77 43 -8 0 -35 -28 -58 -62z m151 -114 c20 -15 40 -35 43 -45 7 -22 -18
-73 -46 -93 -24 -17 -40 -13 -89 23 -19 14 -37 26 -39 28 -8 5 71 113 82 113
6 0 28 -12 49 -26z"/>
<path d="M4794 8009 c-683 -66 -1396 -430 -1863 -952 -507 -567 -770 -1252
-771 -2007 0 -422 83 -819 255 -1220 248 -580 750 -1119 1327 -1428 230 -123
525 -229 783 -281 519 -106 1084 -63 1573 120 868 324 1537 1049 1801 1953 89
303 116 505 116 861 0 283 -13 430 -50 589 -8 34 -22 95 -31 136 -23 104 -106
350 -153 458 -165 374 -361 663 -641 942 -152 152 -224 212 -390 327 -402 279
-832 441 -1320 498 -133 16 -493 18 -636 4z m502 -29 c422 -34 756 -129 1124
-321 697 -365 1220 -1002 1440 -1754 199 -681 152 -1411 -131 -2064 -92 -211
-212 -413 -367 -621 -103 -137 -347 -385 -490 -499 -890 -704 -2066 -818
-3082 -299 -422 216 -820 571 -1092 974 -243 361 -410 806 -473 1264 -23 160
-30 486 -16 640 62 654 280 1178 692 1665 148 175 348 359 524 481 170 118
250 167 390 237 459 229 989 336 1481 297z"/>
<path d="M4845 7923 c-206 -25 -304 -41 -432 -73 -502 -127 -980 -402 -1338
-771 -355 -365 -575 -744 -721 -1236 -119 -404 -138 -957 -48 -1383 139 -657
453 -1180 988 -1645 266 -231 635 -433 986 -539 494 -149 1005 -161 1503 -36
603 151 1172 529 1548 1026 304 403 505 883 575 1374 21 148 29 520 15 673
-63 671 -341 1282 -797 1756 -465 483 -1039 769 -1694 846 -113 14 -498 19
-585 8z m609 -126 c59 -9 125 -21 145 -26 20 -6 55 -12 77 -16 23 -3 73 -15
110 -26 38 -11 80 -23 94 -26 14 -3 30 -10 36 -14 6 -5 49 -22 95 -38 158 -55
343 -144 448 -215 25 -16 63 -39 85 -51 38 -20 181 -121 270 -190 46 -36 116
-97 169 -147 22 -21 41 -38 43 -38 2 0 32 -30 66 -67 35 -36 84 -89 111 -115
26 -27 47 -53 47 -58 0 -5 9 -11 19 -15 12 -4 18 -12 14 -21 -3 -7 -1 -14 5
-14 6 0 21 -17 33 -37 12 -21 50 -76 83 -123 34 -47 71 -103 83 -125 36 -67
143 -286 143 -294 0 -4 11 -29 23 -57 13 -27 34 -80 47 -119 12 -38 31 -91 41
-117 11 -26 19 -59 19 -73 0 -14 5 -35 10 -45 9 -16 38 -138 69 -282 5 -21 6
-50 3 -64 -3 -16 -1 -25 5 -21 6 4 11 -39 12 -116 1 -67 4 -189 6 -272 3 -82
1 -174 -4 -202 -4 -29 -4 -53 0 -53 5 0 4 -11 -1 -25 -5 -14 -7 -32 -3 -42 4
-10 2 -14 -4 -10 -6 4 -9 -4 -7 -21 2 -15 -1 -46 -7 -70 -5 -23 -12 -59 -15
-80 -3 -20 -12 -60 -20 -88 -8 -29 -14 -56 -12 -60 3 -15 -14 -78 -28 -100 -8
-11 -12 -23 -9 -25 2 -3 -4 -28 -14 -55 -34 -90 -34 -91 -21 -74 10 13 11 12
6 -3 -3 -10 -6 -25 -6 -33 0 -8 -6 -13 -12 -11 -7 1 -13 -6 -13 -15 0 -9 -3
-20 -7 -23 -4 -4 -4 -13 -1 -21 3 -8 0 -14 -6 -14 -6 0 -11 -5 -11 -10 0 -6
-9 -30 -21 -55 -12 -25 -19 -51 -16 -59 4 -10 1 -13 -9 -9 -12 4 -14 0 -9 -18
4 -16 0 -31 -13 -45 -11 -11 -23 -35 -27 -52 -4 -20 -11 -30 -18 -25 -6 4 -8
0 -4 -10 7 -19 -9 -33 -17 -15 -3 7 -3 3 0 -9 3 -14 1 -23 -6 -23 -7 0 -9 -7
-6 -17 4 -10 4 -14 0 -11 -8 8 -34 -16 -34 -31 0 -6 -5 -11 -11 -11 -6 0 -9
-7 -6 -14 4 -10 1 -13 -9 -9 -9 3 -12 0 -9 -9 3 -8 -6 -31 -20 -52 -14 -20
-25 -40 -25 -44 0 -4 -16 -24 -35 -46 -19 -21 -35 -43 -35 -48 0 -5 -7 -16
-15 -25 -8 -8 -12 -19 -9 -25 4 -6 2 -8 -3 -5 -12 8 -37 -18 -30 -30 3 -5 -10
-19 -29 -32 -18 -13 -32 -27 -29 -31 3 -5 -18 -31 -45 -59 -27 -28 -47 -51
-44 -51 3 0 -12 -17 -33 -37 -21 -21 -46 -51 -56 -66 -13 -20 -24 -27 -35 -22
-9 3 -13 3 -10 -1 4 -3 -10 -22 -30 -41 -20 -19 -55 -51 -77 -72 -41 -39 -86
-75 -125 -101 -12 -8 -44 -32 -70 -52 -26 -21 -52 -38 -57 -38 -6 0 -23 -11
-38 -24 -15 -13 -45 -33 -66 -43 -22 -10 -39 -21 -39 -25 0 -4 -71 -41 -157
-83 -191 -92 -180 -88 -273 -121 -41 -14 -100 -35 -130 -46 -146 -51 -314 -86
-575 -118 -100 -13 -307 -11 -475 4 -80 7 -151 11 -159 8 -8 -3 -12 -1 -9 4 3
5 -19 10 -50 12 -31 2 -60 8 -63 14 -4 6 -15 8 -24 4 -9 -3 -54 5 -99 20 -44
14 -97 27 -116 29 -19 2 -36 8 -38 14 -2 5 -10 7 -19 4 -8 -3 -18 -2 -22 4 -3
5 -34 17 -68 28 -35 10 -63 22 -63 27 0 5 -11 6 -25 2 -15 -4 -25 -2 -25 5 0
6 -7 11 -15 11 -9 0 -33 9 -54 20 -21 10 -42 16 -46 12 -5 -4 -5 1 -1 12 5 14
2 17 -9 12 -8 -3 -15 -1 -15 3 0 5 -10 7 -22 3 -13 -3 -19 -1 -15 5 4 6 -6 15
-21 21 -28 10 -63 22 -72 24 -10 3 -30 27 -30 36 0 9 -37 20 -82 25 -9 1 -15
4 -13 8 3 3 -6 11 -18 16 -23 11 -62 41 -101 79 -11 11 -39 28 -61 38 -22 10
-54 29 -71 42 -17 13 -35 20 -38 16 -4 -3 -4 1 0 11 7 19 -11 24 -20 5 -3 -7
-4 -5 -3 6 1 11 -5 20 -15 21 -9 2 -34 19 -54 39 -20 20 -42 36 -48 36 -6 0
-4 5 4 11 12 9 11 10 -8 6 -12 -3 -20 -2 -18 1 4 7 -26 39 -31 35 -2 -2 -3 0
-2 3 0 3 -10 14 -22 25 -12 10 -19 19 -15 19 4 0 -3 10 -16 23 -24 24 -57 42
-71 38 -5 -1 -6 3 -2 9 3 6 12 8 18 5 7 -3 1 2 -13 12 -40 28 -110 105 -104
114 3 5 -1 6 -9 3 -10 -4 -15 1 -14 13 2 13 -5 18 -21 17 -16 0 -19 3 -12 10
7 7 2 19 -17 38 -15 15 -23 28 -18 28 4 0 -4 11 -19 25 -15 14 -24 30 -20 36
3 6 -3 19 -15 30 -12 11 -28 31 -37 44 -9 14 -22 25 -29 25 -7 0 -13 6 -12 13
1 32 -4 48 -13 42 -5 -3 -10 3 -10 15 0 12 -4 18 -10 15 -5 -3 -10 1 -10 9 0
8 -7 22 -16 30 -8 9 -12 22 -8 28 4 7 4 10 0 6 -4 -3 -26 30 -49 75 -23 45
-44 84 -47 87 -11 11 -53 109 -71 164 -11 33 -23 64 -28 70 -4 6 -16 36 -25
66 -10 30 -21 64 -26 75 -4 11 -20 63 -34 114 -15 52 -31 98 -36 101 -6 4 -8
14 -4 23 3 9 -2 54 -11 99 -9 46 -19 92 -20 103 -12 66 -37 387 -38 485 -2
117 50 550 65 550 5 0 7 4 3 10 -6 9 32 162 61 249 8 24 12 46 9 49 -3 3 1 15
8 26 8 12 26 55 42 96 15 41 32 79 36 85 5 5 9 17 9 27 0 10 4 18 8 18 4 0 16
23 27 52 17 48 58 123 153 283 20 33 38 62 41 65 3 3 11 12 16 22 26 43 130
184 143 194 8 6 12 16 8 23 -4 6 -4 10 1 9 5 -2 40 30 78 71 127 136 199 207
260 257 33 27 76 63 95 81 37 34 187 143 196 143 2 0 28 17 57 38 67 48 68 48
232 131 299 150 573 229 960 279 106 14 500 6 619 -11z m-2830 -4073 c3 -8 2
-12 -4 -9 -6 3 -10 10 -10 16 0 14 7 11 14 -7z m246 -384 c0 -5 -2 -10 -4 -10
-3 0 -8 5 -11 10 -3 6 -1 10 4 10 6 0 11 -4 11 -10z"/>
<path d="M4880 7640 c-119 -9 -216 -23 -284 -41 -72 -19 -30 -18 79 2 228 41
572 43 810 4 702 -112 1320 -510 1716 -1105 237 -356 378 -751 420 -1175 18
-190 6 -557 -24 -725 -50 -275 -121 -486 -248 -737 -213 -421 -524 -757 -955
-1030 -87 -56 -312 -167 -409 -203 -208 -77 -429 -128 -643 -151 -141 -14
-501 -6 -627 14 -676 111 -1263 467 -1669 1012 -281 376 -446 801 -496 1275
-13 126 -13 446 1 568 30 282 118 586 244 843 56 114 86 165 164 282 36 55 73
109 81 122 9 13 62 77 118 143 233 273 522 497 832 644 131 62 140 67 205 92
22 8 36 15 30 15 -31 2 -216 -73 -223 -90 -2 -4 -10 -5 -18 -2 -8 3 -14 1 -14
-4 0 -5 -15 -14 -32 -21 -18 -6 -49 -22 -68 -34 -19 -12 -38 -22 -41 -23 -23
-1 -320 -210 -381 -267 -10 -10 -18 -16 -18 -13 0 4 -81 -69 -158 -143 -13
-12 -27 -20 -33 -17 -5 3 -7 0 -4 -7 3 -7 -26 -45 -63 -83 -37 -39 -80 -90
-96 -113 -16 -23 -32 -42 -37 -42 -4 0 -14 -11 -21 -24 -7 -13 -39 -63 -70
-110 -32 -47 -58 -90 -58 -96 0 -6 -4 -9 -9 -6 -4 3 -16 -14 -26 -39 -10 -24
-22 -42 -27 -39 -4 3 -5 -1 -2 -9 3 -8 -1 -21 -8 -28 -12 -12 -60 -103 -63
-119 -4 -19 -47 -90 -55 -90 -5 0 -9 -10 -7 -22 1 -14 -3 -22 -11 -20 -10 2
-10 -2 -1 -19 6 -13 7 -19 1 -15 -6 3 -13 -8 -17 -26 -4 -18 -10 -37 -13 -43
-3 -5 -7 -19 -8 -31 -1 -12 -12 -42 -23 -67 -11 -24 -23 -64 -27 -88 -4 -24
-12 -57 -19 -74 -27 -67 -43 -138 -40 -176 3 -22 0 -37 -4 -34 -9 5 -23 -91
-39 -265 -7 -86 -8 -225 -3 -428 2 -54 51 -372 63 -398 6 -16 13 -38 14 -49 4
-34 11 -69 17 -85 19 -53 37 -116 37 -132 0 -10 3 -18 8 -18 4 0 13 -19 20
-42 18 -58 51 -130 69 -150 8 -9 13 -23 11 -30 -3 -7 8 -34 24 -61 15 -26 28
-52 28 -57 0 -5 8 -13 17 -19 10 -5 15 -13 11 -16 -4 -4 12 -37 36 -74 23 -36
55 -87 71 -113 18 -28 35 -46 43 -43 9 3 11 -1 7 -15 -4 -11 -2 -20 4 -20 6 0
11 -6 11 -12 0 -7 14 -27 30 -45 17 -18 30 -37 30 -42 0 -6 4 -11 9 -11 5 0
17 -13 28 -29 39 -61 275 -311 293 -311 5 0 15 -8 22 -18 7 -9 24 -25 38 -34
14 -9 35 -25 47 -37 12 -12 26 -21 32 -21 5 0 11 -4 13 -8 2 -4 20 -18 41 -31
20 -12 37 -27 37 -32 0 -5 6 -9 14 -9 7 0 19 -7 26 -15 7 -9 43 -32 79 -52 36
-20 68 -39 71 -42 3 -3 21 -14 40 -23 52 -26 102 -56 114 -68 5 -5 17 -10 26
-10 8 0 31 -9 51 -19 32 -17 102 -44 259 -99 100 -35 162 -52 191 -52 16 0 37
-4 47 -9 50 -26 377 -61 572 -61 162 0 315 16 487 50 117 23 248 56 274 70 10
6 27 10 38 10 12 0 29 4 39 9 9 6 43 19 74 30 32 11 66 25 75 30 10 5 59 28
108 51 50 22 134 67 188 98 53 31 111 64 128 74 36 19 79 50 129 94 19 17 64
52 100 79 132 99 338 306 429 430 25 33 47 62 50 65 13 11 71 89 71 95 0 4 6
13 13 20 23 26 32 40 52 80 11 22 23 42 26 45 9 8 69 136 69 149 0 6 5 11 10
11 6 0 10 5 10 11 0 5 11 35 25 65 14 30 25 61 25 69 0 7 4 16 9 19 9 6 49
118 70 196 7 25 19 67 28 94 9 27 18 63 20 80 2 17 6 40 10 51 4 11 7 27 8 35
1 8 8 43 15 77 7 34 10 71 7 82 -3 11 -1 21 3 23 11 4 32 289 29 403 -1 50 -8
140 -15 200 -8 61 -14 134 -14 163 0 28 -4 52 -9 52 -5 0 -11 24 -14 53 -2 28
-13 86 -25 127 -11 41 -28 102 -37 135 -23 83 -56 176 -71 199 -7 10 -10 25
-7 34 4 9 2 13 -4 9 -6 -4 -20 24 -34 66 -13 40 -27 74 -30 77 -3 3 -9 18 -13
33 -4 17 -11 25 -18 21 -7 -5 -9 -2 -5 9 3 9 0 18 -9 21 -8 3 -14 9 -13 13 2
14 -13 53 -21 53 -4 0 -15 16 -24 35 -10 20 -21 33 -26 30 -6 -3 -8 0 -5 7 2
7 -9 36 -25 63 -17 28 -33 58 -36 67 -3 10 -14 20 -23 23 -20 6 -53 63 -45 77
4 6 1 9 -7 6 -12 -4 -59 52 -59 71 0 5 -10 15 -23 23 -12 9 -29 28 -37 44 -18
34 -35 54 -48 54 -5 0 -17 16 -28 35 -10 19 -22 35 -27 35 -4 0 -5 -5 -1 -12
4 -7 3 -8 -4 -4 -6 4 -8 14 -5 23 4 11 3 14 -5 9 -7 -4 -12 -2 -12 3 0 6 -7
11 -15 11 -12 0 -14 7 -9 28 4 21 3 24 -5 12 -9 -13 -12 -13 -20 -1 -5 7 -14
10 -20 7 -6 -4 -10 -3 -9 1 4 13 -54 73 -69 73 -7 0 -12 4 -11 8 2 5 -12 21
-30 36 -17 15 -30 32 -27 37 4 5 0 6 -8 4 -7 -3 -28 8 -45 25 -18 16 -37 30
-42 30 -6 0 -8 5 -4 12 5 7 2 9 -8 6 -9 -4 -22 4 -33 18 -10 14 -25 24 -34 22
-9 -1 -48 19 -88 45 -39 26 -77 47 -83 47 -7 0 -29 13 -49 29 -21 16 -50 33
-65 37 -18 4 -25 11 -22 20 4 12 1 12 -14 4 -16 -8 -24 -7 -36 5 -9 8 -19 13
-24 10 -4 -3 -13 2 -20 9 -6 8 -25 18 -41 21 -16 4 -29 11 -29 16 0 6 -9 7
-21 4 -15 -5 -19 -4 -15 4 5 7 -3 11 -21 11 -15 0 -49 11 -75 24 -53 27 -89
38 -137 42 -19 2 -38 8 -42 15 -3 6 -11 9 -16 6 -5 -3 -36 1 -69 10 -75 19
-97 24 -249 47 -65 10 -437 14 -545 6z m-2363 -2342 c-3 -8 -6 -5 -6 6 -1 11
2 17 5 13 3 -3 4 -12 1 -19z"/>
<path d="M4519 7585 c-3 -2 -14 -6 -25 -8 -40 -8 -106 -28 -102 -33 6 -6 141
27 153 38 5 5 3 8 -6 8 -9 0 -18 -2 -20 -5z"/>
<path d="M4875 7570 c-692 -58 -1356 -431 -1782 -1000 -185 -248 -349 -588
-422 -876 -135 -534 -97 -1113 104 -1604 196 -479 542 -892 988 -1181 519
-337 1187 -462 1805 -339 386 76 736 241 1067 500 97 76 321 299 396 395 363
462 549 996 549 1576 0 254 -20 418 -81 663 -108 433 -364 869 -694 1184 -194
185 -374 313 -605 428 -415 208 -859 293 -1325 254z m478 -45 c559 -65 1030
-288 1434 -678 381 -368 632 -851 725 -1392 30 -177 32 -585 4 -770 -127 -823
-630 -1513 -1368 -1878 -491 -242 -1017 -304 -1583 -187 -403 83 -820 301
-1129 590 -99 92 -236 238 -236 252 0 12 176 119 310 187 326 165 642 269
1452 475 185 48 378 99 427 116 163 53 241 105 241 162 l0 28 115 0 115 0 0
-85 c0 -78 2 -88 25 -110 23 -24 28 -25 173 -25 l148 0 27 28 c16 17 31 47 36
73 l8 44 11 -28 c18 -42 15 -58 -17 -108 -36 -58 -130 -121 -288 -195 -330
-155 -397 -196 -448 -272 -15 -23 -26 -54 -27 -79 l-1 -42 -124 -3 c-113 -3
-123 -2 -123 15 0 87 148 189 493 342 59 26 106 50 103 52 -6 7 -262 -71 -391
-118 -248 -92 -338 -172 -338 -298 0 -33 7 -71 16 -91 14 -28 17 -69 17 -269
l0 -237 50 -49 c50 -49 51 -50 126 -53 42 -3 122 -1 178 3 l103 7 36 55 c63
95 66 93 -147 93 -158 0 -185 2 -190 16 -3 9 -6 94 -6 189 0 162 1 175 19 185
12 6 93 10 195 10 206 0 205 -1 129 93 -42 52 -50 57 -86 57 -38 0 -39 1 -32
28 18 75 91 124 316 217 309 127 433 202 511 309 51 71 29 154 -50 190 l-41
18 -3 372 -3 372 -30 60 c-23 44 -44 68 -85 97 -30 21 -54 41 -53 45 1 4 34
12 74 19 115 19 150 75 96 154 -27 40 -48 47 -154 48 -82 1 -83 1 -89 -26 -3
-16 -7 -32 -8 -38 -2 -5 -42 68 -91 163 -101 198 -116 214 -225 231 -214 33
-897 39 -1170 11 -180 -18 -198 -34 -316 -275 -53 -110 -69 -135 -72 -115 -7
43 -20 50 -91 49 -98 -1 -142 -17 -164 -59 -39 -78 -5 -124 106 -143 37 -6 67
-14 67 -18 0 -4 -15 -17 -34 -28 -50 -31 -103 -94 -116 -138 -13 -43 -27 -843
-16 -887 4 -15 19 -39 33 -52 25 -23 31 -24 173 -24 l146 0 27 28 c25 26 27
35 27 110 l0 82 650 0 c623 0 650 -1 650 -18 0 -10 -10 -28 -22 -39 -56 -49
-155 -76 -598 -164 -906 -180 -1353 -307 -1759 -500 -79 -38 -147 -69 -150
-69 -20 0 -170 263 -231 406 -249 578 -275 1232 -72 1824 208 607 663 1126
1235 1409 299 147 572 224 902 254 106 10 333 5 448 -8z m247 -1715 c90 -8
132 -15 150 -28 22 -16 190 -328 190 -353 0 -5 -374 -9 -860 -9 -509 0 -860 4
-860 9 0 5 33 78 73 163 88 183 107 203 199 213 251 25 840 28 1108 5z m-1505
-350 l0 -65 -58 3 c-75 3 -127 24 -127 51 0 30 33 59 77 66 21 4 45 8 53 10
49 11 55 3 55 -65z m2134 36 c22 -20 32 -49 22 -65 -9 -14 -156 -45 -175 -38
-9 4 -15 27 -18 67 l-3 62 77 -4 c55 -3 83 -10 97 -22z m-300 -129 c-77 -48
-210 -141 -223 -156 -11 -12 50 15 138 60 l156 80 80 -63 c118 -93 139 -151
140 -382 0 -141 -39 -296 -78 -311 -9 -3 -79 -11 -154 -18 l-137 -11 -53 50
c-29 28 -73 64 -97 80 l-45 29 -580 0 c-664 0 -603 8 -710 -97 l-61 -61 -144
12 c-79 6 -147 14 -152 17 -15 9 -38 72 -56 149 -12 54 -15 103 -10 215 7 191
24 241 105 304 31 24 68 53 80 64 28 24 20 27 201 -65 68 -35 126 -61 128 -59
7 7 -90 80 -162 122 l-66 39 848 5 c466 3 850 4 852 3 2 -2 2 -4 0 -6z m-140
-791 c9 -11 -54 -14 -393 -21 -519 -9 -1051 2 -1035 21 17 21 1411 21 1428 0z
m-1634 -40 c77 -9 164 -19 193 -22 52 -5 66 -16 36 -28 -9 -3 -85 -6 -171 -6
-167 0 -188 5 -227 57 l-19 26 24 -6 c13 -3 87 -13 164 -21z m2018 0 c-38 -51
-59 -56 -230 -56 -138 0 -199 8 -183 24 3 2 79 12 170 21 91 9 181 20 200 25
59 14 63 12 43 -14z"/>
<path d="M5023 7079 c-97 -144 -225 -323 -236 -330 -5 -4 -25 -1 -43 7 l-33
14 -113 -148 c-62 -81 -144 -189 -181 -239 -42 -55 -74 -90 -81 -86 -18 11
-169 126 -195 150 -13 11 -35 27 -48 34 -23 12 -31 6 -196 -159 -95 -95 -179
-172 -187 -172 -8 0 -39 9 -68 20 -29 11 -58 20 -66 20 -29 0 -677 -521 -657
-528 8 -3 101 47 297 160 88 51 175 111 264 184 l79 64 10 -38 c22 -77 24 -73
-136 -241 -35 -35 -62 -66 -60 -67 3 -2 359 202 425 245 29 18 52 37 52 42 0
5 -20 19 -45 31 -25 12 -45 27 -45 32 -1 13 269 276 282 276 4 0 8 -23 8 -50
0 -36 -9 -67 -30 -110 -16 -33 -30 -62 -30 -65 0 -2 20 -2 45 2 25 3 45 2 45
-3 0 -11 -34 -63 -134 -207 -38 -54 -66 -100 -64 -102 9 -9 371 244 445 311
43 39 112 101 155 138 64 57 81 79 108 139 35 79 122 237 131 237 3 0 15 -21
28 -47 l23 -48 22 38 c44 78 275 427 283 427 5 0 5 -37 2 -82 -5 -67 -14 -102
-48 -181 -24 -54 -40 -101 -38 -104 3 -3 21 7 40 21 19 14 38 26 43 26 13 0 5
-134 -11 -195 -8 -27 -34 -120 -59 -205 -25 -85 -46 -159 -46 -165 0 -11 99
174 217 408 41 82 77 147 79 145 2 -2 42 -41 89 -88 98 -96 92 -72 61 -250 -8
-47 -13 -86 -11 -88 2 -2 50 26 108 62 57 36 109 66 114 66 9 0 93 -96 172
-198 28 -36 62 -57 212 -133 98 -49 184 -89 190 -89 6 0 -29 44 -77 98 -48 53
-113 132 -145 175 -32 43 -74 97 -94 121 -19 24 -35 48 -35 54 0 6 51 51 114
101 63 50 117 95 121 101 18 29 29 -12 52 -205 3 -22 10 -46 16 -53 18 -22
137 -105 143 -99 3 3 -6 32 -20 66 -54 127 -19 110 85 -41 33 -48 62 -88 64
-88 1 0 17 23 35 50 18 28 35 50 39 50 5 0 55 -41 112 -91 57 -50 130 -111
162 -136 77 -60 397 -266 404 -260 5 5 -63 73 -318 322 -287 280 -352 337
-376 331 -13 -4 -34 -9 -46 -12 -20 -5 -44 16 -168 145 -79 83 -149 151 -155
151 -6 0 -36 -21 -66 -47 -30 -27 -97 -84 -148 -128 -50 -44 -98 -81 -105 -83
-7 -2 -55 46 -107 105 -52 59 -115 130 -140 157 -45 50 -46 50 -71 33 -15 -9
-28 -17 -30 -17 -2 0 -39 45 -83 101 -43 55 -103 130 -131 165 -29 36 -67 85
-84 110 -18 24 -36 44 -40 44 -5 0 -39 -45 -76 -101z"/>
<path d="M4829 6345 c-81 -128 -83 -140 -11 -76 39 34 43 42 40 77 l-3 39 -26
-40z"/>
<path d="M4000 3613 c-14 -9 -40 -30 -57 -46 l-33 -31 0 -303 0 -303 80 0 80
0 0 110 0 111 121 -3 122 -3 -2 -107 -2 -108 80 0 81 0 0 303 0 303 -50 47
-50 47 -173 0 c-144 0 -177 -3 -197 -17z m310 -229 l0 -84 -120 0 -120 0 0 85
0 84 88 3 c48 2 102 1 120 -1 l32 -3 0 -84z"/>
<path d="M4604 3579 l-54 -52 0 -66 c0 -60 3 -70 35 -110 l36 -45 -35 -35
c-50 -53 -56 -71 -56 -163 l0 -84 49 -48 48 -47 116 -2 c106 -2 120 0 161 23
l45 24 20 -22 c17 -21 26 -23 105 -20 l86 3 -32 35 c-17 19 -45 50 -62 67
l-30 33 24 42 c20 35 24 57 25 123 l0 80 -72 3 -73 3 0 -60 c0 -33 -4 -62 -9
-65 -5 -4 -21 9 -36 26 -15 18 -66 73 -112 122 -61 63 -83 94 -81 110 3 20 9
21 137 24 l133 3 -4 58 c-6 90 -8 91 -170 91 l-139 0 -55 -51z m178 -435 c29
-31 55 -60 56 -65 5 -14 -132 -11 -146 3 -26 26 -6 118 25 118 6 0 36 -25 65
-56z"/>
<path d="M5791 3576 l-51 -55 0 -249 0 -249 50 -47 49 -46 188 0 189 0 47 48
47 48 0 251 0 252 -50 51 -49 50 -184 0 -184 0 -52 -54z m359 -302 l0 -194
-125 0 -125 0 0 195 0 194 108 3 c59 2 115 1 125 -1 15 -3 17 -21 17 -197z"/>
<path d="M4044 5209 c-23 -26 -24 -117 -1 -153 22 -33 59 -43 204 -55 224 -20
232 -18 218 56 -14 75 -98 119 -313 162 -73 15 -86 14 -108 -10z m164 -44
c163 -43 186 -53 205 -84 31 -52 27 -54 -85 -47 -136 9 -219 24 -240 43 -12
11 -18 31 -18 58 0 65 0 65 138 30z"/>
<path d="M5970 5215 c-109 -22 -212 -62 -244 -94 -24 -25 -30 -39 -30 -78 l-1
-48 40 -3 c53 -5 291 16 333 29 41 13 62 53 62 119 0 94 -19 104 -160 75z
m118 -71 c6 -80 -24 -93 -257 -109 -95 -7 -101 -6 -101 11 0 36 29 62 92 83
102 34 211 60 238 58 22 -2 25 -7 28 -43z"/>
<path d="M4773 5170 c-171 -5 -196 -8 -220 -26 -44 -33 -49 -48 -35 -101 17
-62 47 -110 81 -127 32 -17 251 -45 411 -53 196 -10 532 28 572 64 29 25 68
117 68 158 0 26 -7 38 -32 56 -30 22 -45 24 -247 30 -244 8 -325 8 -598 -1z
m811 -194 c-16 -40 -133 -61 -404 -73 -146 -5 -406 8 -507 27 -42 7 -99 37
-90 47 3 2 18 -2 34 -10 48 -25 237 -41 473 -41 251 1 409 16 455 44 37 23 46
24 39 6z"/>
<path d="M4079 4829 c-25 -27 -29 -39 -29 -89 0 -40 5 -61 16 -71 9 -7 51 -15
99 -17 l83 -4 48 61 c49 63 82 81 152 81 57 0 34 17 -40 29 -142 24 -253 41
-276 41 -14 0 -36 -13 -53 -31z"/>
<path d="M5930 4849 c-111 -17 -235 -42 -250 -49 -9 -5 9 -11 45 -15 87 -10
92 -12 126 -61 47 -69 67 -78 155 -70 41 4 81 9 89 13 22 8 19 95 -5 142 -27
54 -44 58 -160 40z"/>
<path d="M4320 7530 c0 -6 -10 -10 -22 -10 -13 0 -32 -7 -42 -15 -25 -19 -23
-18 43 4 38 12 49 19 38 24 -9 3 -17 2 -17 -3z"/>
<path d="M2934 7837 c-47 -27 -94 -71 -94 -88 0 -10 19 -71 43 -136 24 -65 61
-166 82 -225 22 -60 44 -108 50 -108 5 0 28 15 49 33 l39 33 -18 48 -19 49 35
29 c19 16 48 40 66 54 l32 26 33 -25 c18 -13 38 -27 45 -31 12 -7 93 58 93 75
0 5 -26 26 -57 46 -32 20 -121 78 -198 128 -77 50 -145 94 -150 97 -6 4 -19 1
-31 -5z m161 -213 c19 -15 19 -16 -20 -49 -22 -19 -43 -31 -46 -27 -9 10 -69
152 -69 164 0 8 35 -15 135 -88z"/>
<path d="M7250 7654 c-80 -42 -183 -96 -228 -121 l-84 -45 38 -39 c44 -45 53
-47 105 -17 l39 21 54 -49 c29 -27 56 -54 59 -61 3 -6 -3 -30 -14 -52 -24 -51
-24 -53 9 -82 63 -58 59 -59 96 22 51 113 114 247 152 323 33 67 34 70 17 89
-26 29 -87 86 -93 87 -3 0 -70 -35 -150 -76z m108 -101 c-14 -21 -30 -52 -37
-70 -21 -53 -32 -55 -74 -16 -21 19 -37 36 -35 38 9 8 163 91 166 89 2 -1 -7
-19 -20 -41z"/>
<path d="M2600 7534 c-45 -30 -102 -88 -131 -133 -51 -79 -33 -162 46 -211 50
-31 93 -23 187 35 65 40 79 45 97 36 43 -24 18 -87 -61 -152 -29 -24 -56 -48
-60 -53 -3 -5 7 -23 22 -40 27 -29 30 -29 56 -16 44 23 139 121 163 167 38 75
19 153 -48 199 -58 39 -102 33 -196 -26 -44 -27 -82 -50 -86 -50 -13 0 -39 31
-39 47 0 9 32 47 71 85 l72 69 -29 30 c-33 34 -32 34 -64 13z"/>
<path d="M7675 7405 c-22 -15 -62 -46 -90 -69 -27 -23 -96 -77 -152 -121 -57
-43 -103 -83 -103 -88 0 -15 43 -76 57 -81 6 -3 63 36 126 85 63 49 117 89
120 89 3 0 -23 -61 -58 -135 -84 -175 -84 -177 -49 -222 16 -20 32 -41 36 -47
8 -13 22 -3 235 167 l163 129 -20 27 c-33 47 -48 56 -73 42 -12 -7 -65 -48
-117 -91 -52 -43 -96 -78 -97 -76 -2 2 18 45 43 97 61 124 94 199 94 213 0 12
-13 31 -55 83 l-20 24 -40 -26z"/>
<path d="M2261 7148 c-17 -23 -31 -45 -31 -48 0 -3 28 -26 63 -50 34 -24 121
-88 193 -142 72 -54 133 -98 136 -98 2 0 19 21 37 46 38 52 45 38 -69 122 -35
26 -114 84 -174 130 -61 45 -114 82 -117 82 -4 0 -21 -19 -38 -42z"/>
<path d="M7923 6872 c-95 -145 -100 -150 -170 -191 -40 -23 -73 -46 -73 -51 0
-6 11 -28 25 -50 l25 -40 33 16 c17 10 50 29 71 43 38 25 46 26 218 30 98 2
178 7 178 12 0 5 -10 29 -22 55 l-23 46 -112 -7 c-62 -3 -113 -4 -113 0 0 3
27 42 60 87 33 45 60 87 60 94 0 12 -49 104 -56 104 -2 0 -47 -67 -101 -148z"/>
<path d="M2052 6810 c-21 -38 -30 -65 -25 -74 4 -8 33 -42 64 -77 31 -35 100
-116 153 -179 53 -63 100 -116 104 -117 8 -3 62 79 62 93 0 5 -16 26 -35 47
l-34 39 27 47 c56 98 52 95 107 83 46 -10 51 -9 67 11 21 26 42 76 36 82 -5 5
-462 105 -480 105 -7 0 -28 -27 -46 -60z m208 -86 c36 -9 66 -17 68 -19 8 -7
-50 -86 -60 -83 -6 2 -37 33 -67 68 -48 54 -52 62 -31 56 14 -3 54 -13 90 -22z"/>
<path d="M8339 5080 l-22 -60 -63 0 c-34 0 -65 -4 -68 -8 -3 -5 17 -26 44 -46
28 -21 50 -41 50 -45 0 -3 -6 -32 -14 -63 -9 -38 -10 -58 -3 -58 6 0 32 14 59
31 l48 31 50 -32 c28 -18 53 -30 56 -27 3 3 0 31 -7 62 l-13 57 49 43 49 42
-33 6 c-19 4 -48 7 -66 7 -30 0 -34 4 -56 60 -13 33 -27 60 -31 60 -4 0 -17
-27 -29 -60z"/>
<path d="M1780 5084 c-11 -26 -20 -50 -20 -55 0 -5 -17 -9 -37 -10 -45 -1 -94
-6 -99 -12 -2 -2 19 -21 47 -42 39 -30 49 -43 45 -59 -11 -43 -18 -106 -13
-106 3 0 28 14 55 31 l49 30 58 -37 58 -37 -7 34 c-21 107 -22 103 30 145 l47
39 -29 6 c-16 4 -45 7 -66 8 -34 1 -37 4 -59 56 -12 30 -26 55 -30 55 -5 0
-17 -21 -29 -46z"/>
<path d="M6755 2433 c-72 -47 -133 -90 -136 -95 -3 -5 24 -55 61 -111 37 -56
97 -148 134 -204 36 -57 71 -103 76 -103 14 0 280 178 280 188 0 4 -9 22 -20
40 l-21 33 -42 -24 c-23 -13 -68 -40 -99 -60 l-57 -37 -26 37 c-14 21 -25 43
-25 49 0 6 29 31 64 54 87 56 91 62 72 99 -9 16 -20 33 -26 36 -6 4 -44 -16
-85 -44 -41 -28 -79 -51 -84 -51 -14 0 -53 68 -46 80 3 5 34 29 68 51 34 23
72 51 84 62 l22 19 -22 34 c-12 19 -27 34 -32 34 -6 0 -69 -39 -140 -87z"/>
<path d="M3223 2491 c-45 -28 -83 -88 -83 -131 0 -39 33 -97 94 -165 20 -22
36 -47 36 -56 0 -18 -31 -49 -49 -49 -18 0 -80 44 -133 96 -52 50 -59 50 -91
-4 l-17 -30 58 -59 c106 -106 216 -144 280 -96 32 24 70 77 79 111 10 40 -18
100 -74 163 -29 33 -53 66 -53 74 0 66 48 60 140 -17 l73 -62 23 30 c13 16 24
36 24 44 0 21 -111 122 -163 148 -54 27 -102 28 -144 3z"/>
<path d="M3561 2168 c-35 -73 -83 -175 -107 -226 l-44 -93 156 -77 c152 -74
156 -76 170 -57 26 35 29 66 8 79 -35 21 -154 84 -166 88 -9 3 -8 16 7 49 10
24 20 45 21 47 1 2 38 -15 83 -37 44 -23 87 -41 94 -41 7 0 21 17 31 37 17 36
17 37 -6 55 -13 9 -51 30 -85 45 -68 30 -73 39 -45 91 l18 33 101 -51 c56 -27
104 -50 106 -50 2 0 12 19 23 41 18 41 18 42 -1 56 -21 16 -283 143 -294 143
-4 0 -36 -60 -70 -132z"/>
<path d="M6498 2273 c-30 -13 -38 -21 -38 -42 0 -29 36 -301 45 -339 8 -33 -7
-25 -52 30 -112 136 -187 220 -200 225 -13 5 -67 -17 -101 -41 -10 -7 -1 -22
36 -60 27 -28 102 -112 167 -186 65 -74 125 -137 133 -139 9 -2 42 9 74 25 50
24 58 32 58 55 0 29 -36 374 -46 447 -7 47 -15 50 -76 25z"/>
<path d="M3970 1948 c-29 -90 -63 -194 -76 -233 -13 -38 -20 -72 -16 -76 10
-9 287 -99 305 -99 8 0 22 17 30 38 20 47 14 52 -101 89 -99 33 -97 8 -22 242
56 179 57 172 -5 193 -61 19 -60 20 -115 -154z"/>
<path d="M6010 2066 c-19 -7 -35 -20 -34 -27 3 -38 147 -459 157 -459 7 0 33
8 58 18 l45 17 -75 233 c-83 255 -76 245 -151 218z"/>
<path d="M4395 1988 c-3 -7 -21 -96 -40 -198 -19 -102 -38 -206 -43 -232 -10
-53 -12 -52 69 -63 l45 -7 17 88 c10 48 19 90 22 92 2 2 45 -3 95 -13 51 -9
94 -15 96 -12 2 2 7 24 10 49 l6 45 -96 19 -96 18 6 50 c4 28 8 53 11 55 2 3
51 -3 110 -12 58 -10 107 -16 109 -14 8 8 21 88 14 92 -11 7 -278 55 -306 55
-14 0 -27 -6 -29 -12z"/>
<path d="M5626 1975 c-65 -13 -121 -27 -124 -30 -7 -6 78 -467 88 -478 8 -9
80 1 100 13 11 7 11 23 1 85 -11 64 -11 79 1 86 33 21 55 8 113 -66 33 -41 64
-75 70 -75 5 1 34 6 63 13 l53 13 -23 29 c-12 17 -25 32 -28 35 -3 3 -23 27
-45 53 -36 45 -37 50 -21 59 22 12 46 68 46 106 0 16 -7 51 -15 80 -29 98 -92
115 -279 77z m140 -83 c17 -11 34 -48 34 -76 0 -34 -38 -58 -99 -64 l-48 -4
-7 51 c-4 28 -9 57 -12 64 -7 19 109 45 132 29z"/>
<path d="M5021 1923 l-34 -4 6 -181 c4 -100 7 -212 7 -251 l0 -69 138 4 c164
5 206 19 249 80 26 38 28 50 31 146 3 64 -1 122 -9 150 -16 59 -64 106 -122
121 -43 10 -192 13 -266 4z m236 -108 c44 -31 59 -179 25 -245 -19 -38 -41
-47 -114 -49 l-46 -1 -4 148 c-2 81 -2 150 0 155 6 14 117 8 139 -8z"/>
</g>
</svg>
